HIERARCHY
ROOT Hips
{
	OFFSET 0.000000 0.000000 0.000000
	CHANNELS 6 Xposition Yposition Zposition Zrotation Yrotation Xrotation 
	JOINT LHipJoint
	{
		OFFSET 0.000000 0.000000 0.000000
		CHANNELS 3 Zrotation Yrotation Xrotation
		JOINT LeftUpLeg
		{
			OFFSET 1.363060 -1.794630 0.839290
			CHANNELS 3 Zrotation Yrotation Xrotation
			JOINT LeftLeg
			{
				OFFSET 2.448110 -6.726130 0.000000
				CHANNELS 3 Zrotation Yrotation Xrotation
				JOINT LeftFoot
				{
					OFFSET 2.562200 -7.039590 0.000000
					CHANNELS 3 Zrotation Yrotation Xrotation
					JOINT LeftToeBase
					{
						OFFSET 0.157640 -0.433110 2.322550
						CHANNELS 3 Zrotation Yrotation Xrotation
						End Site
						{
							OFFSET 0.000000 0.000000 0.000000
						}
					}
				}
			}
		}
	}
	JOINT RHipJoint
	{
		OFFSET 0.000000 0.000000 0.000000
		CHANNELS 3 Zrotation Yrotation Xrotation
		JOINT RightUpLeg
		{
			OFFSET -1.305520 -1.794630 0.839290
			CHANNELS 3 Zrotation Yrotation Xrotation
			JOINT RightLeg
			{
				OFFSET -2.542530 -6.985550 0.000000
				CHANNELS 3 Zrotation Yrotation Xrotation
				JOINT RightFoot
				{
					OFFSET -2.568260 -7.056230 0.000000
					CHANNELS 3 Zrotation Yrotation Xrotation
					JOINT RightToeBase
					{
						OFFSET -0.164730 -0.452590 2.363150
						CHANNELS 3 Zrotation Yrotation Xrotation
						End Site
						{
							OFFSET 0.000000 0.000000 0.000000
						}
					}
				}
			}
		}
	}
	JOINT LowerBack
	{
		OFFSET 0.000000 0.000000 0.000000
		CHANNELS 3 Zrotation Yrotation Xrotation
		JOINT Spine
		{
			OFFSET 0.028270 2.035590 -0.193380
			CHANNELS 3 Zrotation Yrotation Xrotation
			JOINT Spine1
			{
				OFFSET 0.056720 2.048850 -0.042750
				CHANNELS 3 Zrotation Yrotation Xrotation
				JOINT Neck
				{
					OFFSET 0.000000 0.000000 0.000000
					CHANNELS 3 Zrotation Yrotation Xrotation
					JOINT Neck1
					{
						OFFSET -0.054170 1.746240 0.172020
						CHANNELS 3 Zrotation Yrotation Xrotation
						JOINT Head
						{
							OFFSET 0.104070 1.761360 -0.123970
							CHANNELS 3 Zrotation Yrotation Xrotation
							End Site
							{
								OFFSET 0.000000 0.000000 0.000000
							}
						}
					}
				}
				JOINT LeftShoulder
				{
					OFFSET 0.000000 0.000000 0.000000
					CHANNELS 3 Zrotation Yrotation Xrotation
					JOINT LeftArm
					{
						OFFSET 3.362410 1.200890 -0.311210
						CHANNELS 3 Zrotation Yrotation Xrotation
						JOINT LeftForeArm
						{
							OFFSET 4.983000 -0.000000 -0.000000
							CHANNELS 3 Zrotation Yrotation Xrotation
							JOINT LeftHand
							{
								OFFSET 3.483560 -0.000000 -0.000000
								CHANNELS 3 Zrotation Yrotation Xrotation
								JOINT LeftFingerBase
								{
									OFFSET 0.000000 0.000000 0.000000
									CHANNELS 3 Zrotation Yrotation Xrotation
									JOINT LeftHandIndex1
									{
										OFFSET 0.715260 -0.000000 -0.000000
										CHANNELS 3 Zrotation Yrotation Xrotation
										End Site
										{
											OFFSET 0.000000 0.000000 0.000000
										}
									}
								}
								JOINT LThumb
								{
									OFFSET 0.000000 0.000000 0.000000
									CHANNELS 3 Zrotation Yrotation Xrotation
									End Site
									{
										OFFSET 0.000000 0.000000 0.000000
									}
								}
							}
						}
					}
				}
				JOINT RightShoulder
				{
					OFFSET 0.000000 0.000000 0.000000
					CHANNELS 3 Zrotation Yrotation Xrotation
					JOINT RightArm
					{
						OFFSET -3.136600 1.374050 -0.404650
						CHANNELS 3 Zrotation Yrotation Xrotation
						JOINT RightForeArm
						{
							OFFSET -5.241900 -0.000000 -0.000000
							CHANNELS 3 Zrotation Yrotation Xrotation
							JOINT RightHand
							{
								OFFSET -3.444170 -0.000000 -0.000000
								CHANNELS 3 Zrotation Yrotation Xrotation
								JOINT RightFingerBase
								{
									OFFSET 0.000000 0.000000 0.000000
									CHANNELS 3 Zrotation Yrotation Xrotation
									JOINT RightHandIndex1
									{
										OFFSET -0.622530 -0.000000 -0.000000
										CHANNELS 3 Zrotation Yrotation Xrotation
										End Site
										{
											OFFSET 0.000000 0.000000 0.000000
										}
									}
								}
								JOINT RThumb
								{
									OFFSET 0.000000 0.000000 0.000000
									CHANNELS 3 Zrotation Yrotation Xrotation
									End Site
									{
										OFFSET 0.000000 0.000000 0.000000
									}
								}
							}
						}
					}
				}
			}
		}
	}
}
MOTION
Frames: 11
Frame Time: 0.008333
0.256785 16.350326 -6.659707 -1.089919 3.517675 -2.874452 0.264761 -0.177250 -0.096718 -16.768058 -1.286832 -23.840360 7.037759 16.204203 50.888098 -0.117763 5.545946 -15.639691 0.068700 -1.690900 -4.652200 -2.440283 -0.300303 -0.378798 18.261763 -0.157807 -25.109903 -8.783958 -17.088338 55.914854 -1.550740 3.791285 -16.590172 -0.079300 1.817000 -5.000300 3.129416 0.645804 6.381158 1.872064 1.224034 -1.538875 2.270870 0.249000 4.529803 -4.102555 -2.479357 -6.748039 2.518610 -2.626209 37.365048 0.441900 -0.753300 14.054100 9.509221 5.020194 0.349904 -84.344853 -7.782601 19.863603 17.235495 -31.511521 -5.474578 0.188755 -0.659584 -26.379881 30.989414 -10.266833 -5.670500 -7.125000 0.000000 0.000000 2.947500 18.965700 -1.832000 -8.183408 -3.829674 0.095231 90.230611 11.598228 6.720545 -13.593839 26.522830 -3.823398 0.678606 0.757112 31.876016 -21.867683 -22.483500 9.185700 7.125000 0.000000 0.000000 7.663100 -54.982200 -1.886700 
0.264781 16.388484 -6.641792 -0.967703 3.044571 -2.357377 0.226934 -0.188434 -0.084966 -16.917585 -1.060989 -23.710265 6.711996 15.958501 49.785904 -0.200776 6.025707 -15.864455 0.068800 -1.691900 -4.655000 -2.413408 -0.286942 -0.383492 18.154589 -0.013807 -25.325639 -8.589315 -16.982802 55.274790 -1.576851 4.052369 -16.465705 -0.063900 1.630600 -4.485800 3.019162 0.746970 5.999413 1.844602 1.324746 -1.525651 2.251804 0.297348 4.753063 -3.998548 -2.481511 -6.762028 2.445482 -2.626022 37.572851 0.390200 -0.740800 14.119000 9.453451 5.108442 0.352667 -84.703231 -6.330814 17.273404 14.681616 -28.315073 -4.174629 0.147251 -0.689435 -24.796836 29.881918 -9.116071 -4.777800 -7.125000 0.000000 0.000000 2.280200 20.406500 -1.343100 -8.107688 -3.914181 0.149244 90.098025 10.482986 3.838718 -12.036504 24.358062 -3.101663 0.709815 0.778465 34.584938 -21.308482 -23.160477 9.172100 7.125000 0.000000 0.000000 8.575000 -55.608500 -2.244400 
0.273283 16.434436 -6.625192 -0.819596 2.563102 -1.802782 0.184921 -0.201834 -0.071725 -17.107666 -0.832224 -23.594478 6.367736 15.688697 48.602565 -0.308603 6.557620 -15.960746 0.070500 -1.713100 -4.713400 -2.378377 -0.272450 -0.385646 18.051675 0.146708 -25.483891 -8.339411 -16.837171 54.450061 -1.588884 4.165033 -16.395945 -0.045800 1.381600 -3.799400 2.871500 0.826572 5.601654 1.810171 1.395221 -1.521563 2.218903 0.331142 4.961164 -3.875769 -2.467402 -6.763862 2.359016 -2.601836 37.702238 0.329600 -0.717600 14.142900 9.395050 5.198032 0.361212 -85.018094 -4.942415 14.220982 12.232289 -24.938365 -3.041746 0.101316 -0.715304 -22.484483 28.636934 -8.044514 -3.963800 -7.125000 0.000000 0.000000 1.474800 21.736800 -0.824000 -8.037718 -4.001045 0.201235 90.007090 9.444323 0.463320 -10.589489 22.220114 -2.473501 0.743936 0.791295 37.506973 -20.750342 -23.693240 9.093500 7.125000 0.000000 0.000000 9.444400 -56.073800 -2.581800 
0.282494 16.487878 -6.610617 -0.686832 2.074494 -1.261841 0.141916 -0.215549 -0.058372 -17.294426 -0.587657 -23.497667 6.030050 15.412338 47.418269 -0.429330 7.067405 -15.882105 0.069600 -1.702100 -4.683100 -2.335312 -0.258157 -0.385707 17.993954 0.302081 -25.524930 -8.031138 -16.643327 53.424567 -1.586273 4.132374 -16.368857 -0.028500 1.090600 -2.998000 2.735741 0.877768 5.248598 1.771448 1.433089 -1.520296 2.152613 0.351231 5.147801 -3.742359 -2.432803 -6.769492 2.286591 -2.556313 37.744752 0.274400 -0.684000 14.128700 9.335578 5.287096 0.375663 -85.300504 -3.637321 10.440931 9.921417 -21.434537 -2.088573 0.048833 -0.733164 -19.219261 27.334814 -7.033382 -3.235100 -7.125000 0.000000 0.000000 0.588900 22.968000 -0.312400 -7.976894 -4.089244 0.250805 89.964113 8.459166 -3.455925 -9.297885 20.196627 -1.950343 0.780758 0.793631 40.696306 -20.204445 -24.099222 8.966400 7.125000 0.000000 0.000000 10.255000 -56.400300 -2.887900 
0.292312 16.546887 -6.598269 -0.607220 1.582728 -0.763398 0.100339 -0.228228 -0.046076 -17.428327 -0.337900 -23.421767 5.716069 15.143680 46.292402 -0.547268 7.488914 -15.633683 0.064000 -1.631900 -4.489300 -2.285349 -0.245023 -0.383331 18.015935 0.448517 -25.416961 -7.669416 -16.398631 52.206955 -1.572213 3.984555 -16.379096 -0.013800 0.759800 -2.088100 2.650166 0.899764 4.973649 1.732102 1.440124 -1.519781 2.045122 0.359918 5.303509 -3.607190 -2.376682 -6.782410 2.248251 -2.494780 37.703685 0.235200 -0.642000 14.081300 9.278268 5.374147 0.395222 -85.560494 -2.397695 5.554983 7.798313 -17.904953 -1.325476 -0.012881 -0.739403 -14.625333 26.094850 -6.037454 -2.581500 -7.125000 0.000000 0.000000 -0.287700 24.144900 0.144800 -7.927813 -4.177787 0.296460 89.964262 7.480138 -7.842639 -8.212906 18.400359 -1.539790 0.817678 0.787957 44.079960 -19.643742 -24.464034 8.809100 7.125000 0.000000 0.000000 11.070100 -56.671600 -3.194200 
0.301725 16.608932 -6.588552 -0.594721 1.098596 -0.313541 0.061238 -0.239451 -0.035687 -17.482276 -0.113132 -23.362102 5.432465 14.890795 45.252408 -0.651553 7.797050 -15.257291 0.054200 -1.502500 -4.132500 -2.230251 -0.233306 -0.378133 18.125829 0.597000 -25.164439 -7.266972 -16.107595 50.833750 -1.545764 3.728873 -16.417430 -0.004300 0.424800 -1.167200 2.619793 0.895580 4.784034 1.694984 1.419974 -1.519986 1.906060 0.358881 5.422821 -3.481035 -2.301433 -6.797729 2.254699 -2.422684 37.581818 0.218000 -0.594200 14.001900 9.227001 5.458496 0.418529 -85.811280 -1.179064 -0.952499 5.924264 -14.501632 -0.754061 -0.086388 -0.731124 -8.123887 25.009510 -4.937924 -1.948300 -7.125000 0.000000 0.000000 -1.083100 25.400200 0.513900 -7.891787 -4.266451 0.336477 89.999216 6.444220 -12.443170 -7.369570 16.931541 -1.238181 0.851853 0.779344 47.490115 -19.052975 -24.878838 8.643100 7.125000 0.000000 0.000000 11.952000 -56.977500 -3.542400 
0.309822 16.672192 -6.580455 -0.646118 0.631421 0.097025 0.024088 -0.249155 -0.027350 -17.449615 0.061916 -23.302355 5.175808 14.653463 44.292785 -0.735082 7.991908 -14.823729 0.042100 -1.324200 -3.641300 -2.172518 -0.222954 -0.370769 18.310954 0.756988 -24.798755 -6.842275 -15.780999 49.361981 -1.507213 3.384137 -16.469851 -0.000400 0.124200 -0.341200 2.624686 0.868834 4.654373 1.663602 1.375179 -1.518709 1.762067 0.346802 5.523660 -3.370929 -2.210945 -6.829399 2.298085 -2.339447 37.394248 0.220200 -0.541400 13.900600 9.185041 5.542407 0.443971 -86.069752 0.091390 -9.653720 4.374994 -11.429785 -0.362254 -0.176311 -0.705984 0.980569 24.170427 -3.689967 -1.314500 -7.125000 0.000000 0.000000 -1.728600 26.788100 0.764300 -7.867534 -4.356396 0.368972 90.048078 5.301391 -16.798603 -6.780421 15.860999 -1.034573 0.878780 0.776497 50.608234 -18.388457 -25.420166 8.466900 7.125000 0.000000 0.000000 12.995700 -57.385500 -3.987300 
0.315794 16.735250 -6.573876 -0.760236 0.183666 0.486955 -0.011683 -0.257517 -0.020547 -17.326232 0.181368 -23.234559 4.937636 14.425785 43.387426 -0.802232 8.115001 -14.383063 0.030800 -1.133800 -3.117000 -2.114797 -0.213370 -0.361423 18.559573 0.955439 -24.366160 -6.415261 -15.434183 47.856739 -1.457745 2.993303 -16.497052 -0.000400 -0.131400 0.360900 2.654106 0.827543 4.558704 1.639469 1.313896 -1.517627 1.627681 0.326601 5.611970 -3.264930 -2.110550 -6.894672 2.357086 -2.244066 37.168548 0.229800 -0.482800 13.796700 9.154889 5.629163 0.468570 -86.352496 1.518878 -20.774120 3.241855 -8.939215 -0.123152 -0.284157 -0.660702 13.015147 23.620075 -2.298109 -0.669800 -7.125000 0.000000 0.000000 -2.188800 28.314100 0.889400 -7.852610 -4.447929 0.392326 90.103820 4.019764 -20.495929 -6.422200 15.192661 -0.910498 0.896338 0.784576 53.138788 -17.672889 -26.069895 8.281600 7.125000 0.000000 0.000000 14.177500 -57.880000 -4.529300 
0.318830 16.797396 -6.568410 -0.925317 -0.245052 0.878054 -0.046457 -0.265194 -0.014829 -17.131003 0.271655 -23.169513 4.709772 14.200826 42.507119 -0.865825 8.228788 -13.949534 0.022900 -0.977700 -2.687400 -2.059582 -0.203401 -0.350832 18.848653 1.218888 -23.920326 -6.003621 -15.083378 46.380370 -1.399624 2.606322 -16.452723 -0.003000 -0.353500 0.971400 2.690671 0.778451 4.467662 1.622910 1.242968 -1.518105 1.514410 0.300039 5.691276 -3.170335 -2.005456 -6.969330 2.424502 -2.141618 36.904321 0.244300 -0.422000 13.681300 9.134431 5.719426 0.482665 -86.712456 3.213547 -21.321244 2.421253 -7.315832 0.047538 -0.276126 -0.692889 15.048821 24.676548 0.201864 0.469800 -7.125000 0.000000 0.000000 -1.436900 31.099400 0.488300 -7.844383 -4.538433 0.409661 90.157996 2.599352 -23.316032 -6.245683 14.868894 -0.847350 0.904481 0.801133 54.989579 -16.961758 -26.660273 8.067000 7.125000 0.000000 0.000000 15.341500 -58.305600 -5.070400 
0.319336 16.858936 -6.563754 -1.126156 -0.663550 1.281029 -0.080112 -0.273396 -0.010125 -16.890689 0.359324 -23.115834 4.486983 13.973619 41.632753 -0.929231 8.348328 -13.522062 0.016700 -0.833400 -2.290500 -2.008364 -0.192884 -0.339573 19.152771 1.561695 -23.502842 -5.620551 -14.743693 44.982701 -1.335630 2.266827 -16.295302 -0.007300 -0.552600 1.518400 2.726720 0.733392 4.362190 1.610671 1.176142 -1.519926 1.418971 0.275007 5.775117 -3.071797 -1.903349 -7.069599 2.482432 -2.036753 36.626122 0.251800 -0.360000 13.569100 9.124539 5.820335 0.499867 -87.177778 5.243350 -21.850811 1.912167 -6.309449 0.149733 -0.270177 -0.726763 17.432163 25.428389 2.500548 1.598800 -7.125000 0.000000 0.000000 -0.934800 33.698300 0.259100 -7.840764 -4.635673 0.418213 90.205166 1.073698 -25.289446 -6.191280 14.795277 -0.826442 0.904896 0.821857 56.226980 -16.310412 -27.075036 7.826600 7.125000 0.000000 0.000000 16.342400 -58.563600 -5.514400 
0.318021 16.919159 -6.560110 -1.339119 -1.080101 1.708967 -0.112344 -0.283380 -0.006249 -16.641358 0.462769 -23.096601 4.267426 13.742245 40.756204 -0.999816 8.503572 -13.091982 0.011700 -0.699900 -1.923300 -1.962010 -0.181029 -0.327601 19.439684 1.988989 -23.159802 -5.274851 -14.427250 43.700403 -1.270304 2.014701 -15.998174 -0.013800 -0.758000 2.083200 2.749452 0.699247 4.236118 1.599395 1.121693 -1.528312 1.337848 0.256274 5.848400 -2.969060 -1.803694 -7.180158 2.527827 -1.928766 36.348218 0.251600 -0.296400 13.463600 9.125543 5.930813 0.521268 -87.771027 7.605303 -22.370190 1.715620 -5.948151 0.200671 -0.268503 -0.761278 20.061831 25.841293 4.447510 2.583600 -7.125000 0.000000 0.000000 -0.715200 35.915700 0.159700 -7.841654 -4.738357 0.417649 90.237416 -0.540175 -26.481889 -6.222115 14.908127 -0.837545 0.897985 0.845444 56.844413 -15.748041 -27.279202 7.575400 7.125000 0.000000 0.000000 17.110700 -58.632900 -5.811900 
